<svg xmlns="http://www.w3.org/2000/svg" version="1.1" xmlns:xlink="http://www.w3.org/1999/xlink" xmlns:svgjs="http://svgjs.dev/svgjs" width="1500" height="1500" viewBox="0 0 1500 1500"><rect width="1500" height="1500" fill="#000000"></rect><g transform="matrix(0.6666666666666666,0,0,0.6666666666666666,249.39393939393938,582.9144462094596)"><svg viewBox="0 0 396 132" data-background-color="#ffffff" preserveAspectRatio="xMidYMid meet" height="500" width="1500" xmlns="http://www.w3.org/2000/svg" xmlns:xlink="http://www.w3.org/1999/xlink"><g id="tight-bounds" transform="matrix(1,0,0,1,0.2400000000000091,0.1658793010540478)"><svg viewBox="0 0 395.52 131.6682413978919" height="131.6682413978919" width="395.52"><g><svg viewBox="0 0 395.52 131.6682413978919" height="131.6682413978919" width="395.52"><g transform="matrix(1,0,0,1,0,81.3762554517651)"><svg viewBox="0 0 395.52 50.291985946126815" height="50.291985946126815" width="395.52"><g id="textblocktransform"><svg viewBox="0 0 395.52 50.291985946126815" height="50.291985946126815" width="395.52" id="textblock"><g><svg viewBox="0 0 395.52 50.291985946126815" height="50.291985946126815" width="395.52"><g transform="matrix(1,0,0,1,0,0)"><svg width="395.52" viewBox="0.9 -37.5 298.82000000000005 38" height="50.291985946126815" data-palette-color="#000000"><path d="M20.45 0.5L20.45 0.5Q18.35 0.5 17.23-0.93 16.1-2.35 16.1-4.65L16.1-4.65 16.1-13.85Q16.1-16.6 15.08-17.68 14.05-18.75 11-18.75L11-18.75 8.6-18.75 8.6-1.7 12.75-1.7 12.75 0 0.9 0 0.9-1.7 5.1-1.7 5.1-35.3 0.9-35.3 0.9-37 12.4-37Q16.15-37 18.38-35.6 20.6-34.2 21.58-32.1 22.55-30 22.55-27.95L22.55-27.95Q22.55-24.6 20.5-22.45 18.45-20.3 15.05-19.6L15.05-19.6 14.8-19.55 14.8-19.25 15.05-19.2Q17.25-18.75 18.4-17.6 19.55-16.45 19.55-13.85L19.55-13.85 19.55-5.05Q19.55-4.55 19.63-3.78 19.7-3 20.1-2.43 20.5-1.85 21.4-1.85L21.4-1.85Q22.55-1.85 22.9-2.78 23.25-3.7 23.25-4.75L23.25-4.75 23.25-13.4 24.75-13.4 24.75-4.6Q24.75-3.5 24.38-2.3 24-1.1 23.08-0.3 22.15 0.5 20.45 0.5ZM8.6-35.4L8.6-20.35 11.55-20.35Q14.9-20.35 16.68-21.63 18.45-22.9 18.45-26.25L18.45-26.25 18.45-29Q18.45-32.35 16.68-33.88 14.9-35.4 11.55-35.4L11.55-35.4 8.6-35.4ZM32.85 0L24.95 0 24.95-1.7 27.6-1.7 36.25-37 38.25-37 46.9-1.7 50.1-1.7 50.1 0 38.3 0 38.3-1.7 43.35-1.7 40.45-13.55 32.2-13.55 29.35-1.7 32.85-1.7 32.85 0ZM40.05-15.15L36.3-30.6 32.6-15.15 40.05-15.15ZM62.7 0.5L62.7 0.5Q60.15 0.5 58.22-1.1 56.3-2.7 55.02-5.43 53.75-8.15 53.1-11.55 52.45-14.95 52.45-18.5L52.45-18.5Q52.45-22.05 53.1-25.45 53.75-28.85 55.02-31.58 56.3-34.3 58.22-35.9 60.15-37.5 62.7-37.5L62.7-37.5Q64.7-37.5 66.07-36.68 67.45-35.85 68.25-34.7 69.05-33.55 69.3-32.45L69.3-32.45 69.7-32.45 69.7-37 71.3-37 71.3-24.4 68.7-24.4 68.7-25.55Q68.7-29.4 67.82-31.6 66.95-33.8 65.57-34.73 64.2-35.65 62.7-35.65L62.7-35.65Q59.8-35.65 58.22-33.35 56.65-31.05 56.65-26.75L56.65-26.75 56.65-10.25Q56.65-5.95 58.2-3.65 59.75-1.35 62.7-1.35L62.7-1.35Q64.2-1.35 65.57-2.27 66.95-3.2 67.82-5.4 68.7-7.6 68.7-11.45L68.7-11.45 68.7-12.6 71.3-12.6 71.3 0 69.7 0 69.7-4.55 69.3-4.55Q69.05-3.5 68.25-2.33 67.45-1.15 66.07-0.33 64.7 0.5 62.7 0.5ZM85.44 0L75.54 0 75.54-1.7 78.84-1.7 78.84-35.3 75.54-35.3 75.54-37 85.44-37 85.44-35.3 82.14-35.3 82.14-20.8 92.79-20.8 92.79-35.3 89.49-35.3 89.49-37 99.39-37 99.39-35.3 96.09-35.3 96.09-1.7 99.39-1.7 99.39 0 89.49 0 89.49-1.7 92.79-1.7 92.79-19.2 82.14-19.2 82.14-1.7 85.44-1.7 85.44 0ZM122.59 0L101.54 0 101.54-1.7 105.74-1.7 105.74-35.3 101.54-35.3 101.54-37 122.09-37 122.09-26.3 120.69-26.3 119.99-31.65Q119.54-35.25 115.84-35.25L115.84-35.25 109.24-35.25 109.24-21.05 115.69-21.05 115.69-27.4 117.29-27.4 117.29-13 115.69-13 115.69-19.35 109.24-19.35 109.24-1.75 116.34-1.75Q119.99-1.75 120.44-5.4L120.44-5.4 121.19-11.7 122.59-11.7 122.59 0ZM145.44 0.5L145.44 0.5Q143.34 0.5 142.21-0.93 141.09-2.35 141.09-4.65L141.09-4.65 141.09-13.85Q141.09-16.6 140.06-17.68 139.04-18.75 135.99-18.75L135.99-18.75 133.59-18.75 133.59-1.7 137.74-1.7 137.74 0 125.89 0 125.89-1.7 130.09-1.7 130.09-35.3 125.89-35.3 125.89-37 137.39-37Q141.14-37 143.36-35.6 145.59-34.2 146.56-32.1 147.54-30 147.54-27.95L147.54-27.95Q147.54-24.6 145.49-22.45 143.44-20.3 140.04-19.6L140.04-19.6 139.79-19.55 139.79-19.25 140.04-19.2Q142.24-18.75 143.39-17.6 144.54-16.45 144.54-13.85L144.54-13.85 144.54-5.05Q144.54-4.55 144.61-3.78 144.69-3 145.09-2.43 145.49-1.85 146.39-1.85L146.39-1.85Q147.54-1.85 147.89-2.78 148.24-3.7 148.24-4.75L148.24-4.75 148.24-13.4 149.74-13.4 149.74-4.6Q149.74-3.5 149.36-2.3 148.99-1.1 148.06-0.3 147.14 0.5 145.44 0.5ZM133.59-35.4L133.59-20.35 136.54-20.35Q139.89-20.35 141.66-21.63 143.44-22.9 143.44-26.25L143.44-26.25 143.44-29Q143.44-32.35 141.66-33.88 139.89-35.4 136.54-35.4L136.54-35.4 133.59-35.4ZM187.58 0.5L187.58 0.5Q183.63 0.5 181.53-1.75 179.43-4 179.43-8.25L179.43-8.25 179.43-35.3 176.23-35.3 176.23-37 186.63-37 186.63-35.3 182.93-35.3 182.93-8.2Q182.93-5 184.36-3.28 185.78-1.55 188.48-1.55L188.48-1.55Q191.18-1.55 192.61-3.28 194.03-5 194.03-8.2L194.03-8.2 194.03-35.3 191.08-35.3 191.08-37 198.68-37 198.68-35.3 195.73-35.3 195.73-8.25Q195.73-4 193.66-1.75 191.58 0.5 187.58 0.5ZM213.43 0.5L213.43 0.5Q211.28 0.5 209.81-0.33 208.33-1.15 207.46-2.33 206.58-3.5 206.13-4.7 205.68-5.9 205.58-6.65L205.58-6.65 205.18-6.65 205.18 0 203.58 0 203.58-14.75 206.18-14.75 206.18-12.8Q206.18-11.95 206.31-10.5 206.43-9.05 206.81-7.45 207.18-5.85 207.93-4.42 208.68-3 209.98-2.1 211.28-1.2 213.28-1.2L213.28-1.2Q215.68-1.2 217.18-2.68 218.68-4.15 218.68-6.8L218.68-6.8Q218.68-9.1 217.66-11.05 216.63-13 214.98-14.78 213.33-16.55 211.51-18.28 209.68-20 208.03-21.78 206.38-23.55 205.36-25.58 204.33-27.6 204.33-29.95L204.33-29.95Q204.33-32.3 205.38-33.98 206.43-35.65 208.16-36.58 209.88-37.5 211.98-37.5L211.98-37.5Q214.33-37.5 215.78-36.5 217.23-35.5 218.03-34.2 218.83-32.9 219.13-31.95L219.13-31.95 219.53-31.95 219.53-37 221.13-37 221.13-24.6 218.53-24.6 218.53-26.2Q218.53-28.9 217.76-31.1 216.98-33.3 215.56-34.58 214.13-35.85 212.08-35.85L212.08-35.85Q210.03-35.85 208.86-34.5 207.68-33.15 207.68-31.1L207.68-31.1Q207.68-29.1 208.71-27.28 209.73-25.45 211.38-23.73 213.03-22 214.86-20.25 216.68-18.5 218.33-16.63 219.98-14.75 221.01-12.63 222.03-10.5 222.03-8L222.03-8Q222.03-5.4 220.86-3.5 219.68-1.6 217.73-0.55 215.78 0.5 213.43 0.5ZM235.43 0L225.53 0 225.53-1.7 228.83-1.7 228.83-35.3 225.53-35.3 225.53-37 235.43-37 235.43-35.3 232.13-35.3 232.13-20.8 242.78-20.8 242.78-35.3 239.48-35.3 239.48-37 249.38-37 249.38-35.3 246.08-35.3 246.08-1.7 249.38-1.7 249.38 0 239.48 0 239.48-1.7 242.78-1.7 242.78-19.2 232.13-19.2 232.13-1.7 235.43-1.7 235.43 0ZM272.58 0L251.53 0 251.53-1.7 255.73-1.7 255.73-35.3 251.53-35.3 251.53-37 272.08-37 272.08-26.3 270.68-26.3 269.98-31.65Q269.53-35.25 265.83-35.25L265.83-35.25 259.23-35.25 259.23-21.05 265.68-21.05 265.68-27.4 267.28-27.4 267.28-13 265.68-13 265.68-19.35 259.23-19.35 259.23-1.75 266.33-1.75Q269.98-1.75 270.43-5.4L270.43-5.4 271.18-11.7 272.58-11.7 272.58 0ZM295.42 0.5L295.42 0.5Q293.32 0.5 292.2-0.93 291.07-2.35 291.07-4.65L291.07-4.65 291.07-13.85Q291.07-16.6 290.05-17.68 289.02-18.75 285.97-18.75L285.97-18.75 283.57-18.75 283.57-1.7 287.72-1.7 287.72 0 275.87 0 275.87-1.7 280.07-1.7 280.07-35.3 275.87-35.3 275.87-37 287.37-37Q291.12-37 293.35-35.6 295.57-34.2 296.55-32.1 297.52-30 297.52-27.95L297.52-27.95Q297.52-24.6 295.47-22.45 293.42-20.3 290.02-19.6L290.02-19.6 289.77-19.55 289.77-19.25 290.02-19.2Q292.22-18.75 293.37-17.6 294.52-16.45 294.52-13.85L294.52-13.85 294.52-5.05Q294.52-4.55 294.6-3.78 294.67-3 295.07-2.43 295.47-1.85 296.37-1.85L296.37-1.85Q297.52-1.85 297.87-2.78 298.22-3.7 298.22-4.75L298.22-4.75 298.22-13.4 299.72-13.4 299.72-4.6Q299.72-3.5 299.35-2.3 298.97-1.1 298.05-0.3 297.12 0.5 295.42 0.5ZM283.57-35.4L283.57-20.35 286.52-20.35Q289.87-20.35 291.65-21.63 293.42-22.9 293.42-26.25L293.42-26.25 293.42-29Q293.42-32.35 291.65-33.88 289.87-35.4 286.52-35.4L286.52-35.4 283.57-35.4Z" opacity="1" transform="matrix(1,0,0,1,0,0)" fill="#ffffff" class="wordmark-text-0" data-fill-palette-color="primary" id="text-0"></path></svg></g></svg></g></svg></g></svg></g><g transform="matrix(1,0,0,1,159.74662464899234,0)"><svg viewBox="0 0 76.02675070201529 69.50352457754727" height="69.50352457754727" width="76.02675070201529"><g><svg xmlns="http://www.w3.org/2000/svg" xmlns:xlink="http://www.w3.org/1999/xlink" version="1.1" x="0" y="0" viewBox="2.907 7.242978872890175 93.541 85.51502112710982" enable-background="new 0 0 100 100" xml:space="preserve" height="69.50352457754727" width="76.02675070201529" class="icon-icon-0" data-fill-palette-color="accent" id="icon-0"><path d="M96.444 51.752C96.444 49.299 94.403 47.638 94.403 47.638S51.489 8.226 50.924 7.662C50.362 7.1 48.963 7.102 48.364 7.676 48.104 7.926 29.58 24.987 29.58 24.987V9.89H13.604V39.666C8.511 44.351 4.953 47.638 4.953 47.638S2.911 49.361 2.911 51.752L2.907 61.004H10.382L10.391 92.758H38.614V72.66H60.742V92.758H88.965L88.975 61.004H96.448zM21.699 49.676S48.369 25.129 48.514 24.99C49.023 24.502 50.216 24.5 50.694 24.979 51.005 25.292 66.743 39.715 77.587 49.676z" fill="#ffffff" data-fill-palette-color="accent"></path></svg></g></svg></g><g></g></svg></g><defs></defs></svg><rect width="395.52" height="131.6682413978919" fill="none" stroke="none" visibility="hidden"></rect></g></svg></g></svg>